<?xml version="1.0" standalone="no"?>
<!DOCTYPE svg PUBLIC "-//W3C//DTD SVG 1.1//EN" "http://www.w3.org/Graphics/SVG/1.1/DTD/svg11.dtd">
<svg xmlns="http://www.w3.org/2000/svg">
<metadata>Copyright (C) 2017 by original authors @ fontello.com</metadata>
<defs>
<font id="fontello" horiz-adv-x="1000" >
<font-face font-family="fontello" font-weight="400" font-stretch="normal" units-per-em="1000" ascent="850" descent="-150" />
<missing-glyph horiz-adv-x="1000" />
<glyph glyph-name="flag" unicode="&#xe800;" d="M179 707q0-40-36-61v-707q0-7-5-12t-13-6h-36q-7 0-12 6t-6 12v707q-35 21-35 61 0 30 21 51t50 21 51-21 21-51z m821-36v-425q0-14-7-22t-22-15q-120-65-206-65-34 0-69 12t-60 27-65 27-79 12q-107 0-259-81-10-5-19-5-14 0-25 10t-10 25v415q0 17 17 30 12 8 44 24 132 67 235 67 60 0 112-16t122-49q21-11 49-11 30 0 65 12t62 26 49 26 30 12q15 0 25-10t11-26z" horiz-adv-x="1000" />

<glyph glyph-name="cancel-circled" unicode="&#xe801;" d="M641 224q0 14-10 25l-101 101 101 101q10 11 10 25 0 15-10 26l-51 50q-10 11-25 11-15 0-25-11l-101-101-101 101q-11 11-25 11-16 0-26-11l-50-50q-11-11-11-26 0-14 11-25l101-101-101-101q-11-11-11-25 0-15 11-26l50-50q10-11 26-11 14 0 25 11l101 101 101-101q10-11 25-11 15 0 25 11l51 50q10 11 10 26z m216 126q0-117-57-215t-156-156-215-58-216 58-155 156-58 215 58 215 155 156 216 58 215-58 156-156 57-215z" horiz-adv-x="857.1" />

<glyph glyph-name="plus-circled" unicode="&#xe802;" d="M679 314v72q0 14-11 25t-25 10h-143v143q0 15-11 25t-25 11h-71q-15 0-25-11t-11-25v-143h-143q-14 0-25-10t-10-25v-72q0-14 10-25t25-10h143v-143q0-15 11-25t25-11h71q15 0 25 11t11 25v143h143q14 0 25 10t11 25z m178 36q0-117-57-215t-156-156-215-58-216 58-155 156-58 215 58 215 155 156 216 58 215-58 156-156 57-215z" horiz-adv-x="857.1" />

<glyph glyph-name="minus-circled" unicode="&#xe803;" d="M679 314v72q0 14-11 25t-25 10h-429q-14 0-25-10t-10-25v-72q0-14 10-25t25-10h429q14 0 25 10t11 25z m178 36q0-117-57-215t-156-156-215-58-216 58-155 156-58 215 58 215 155 156 216 58 215-58 156-156 57-215z" horiz-adv-x="857.1" />

<glyph glyph-name="attention" unicode="&#xe804;" d="M571 83v106q0 8-5 13t-12 5h-108q-7 0-12-5t-5-13v-106q0-8 5-13t12-6h108q7 0 12 6t5 13z m-1 208l10 257q0 6-5 10-7 6-14 6h-122q-6 0-14-6-5-4-5-12l9-255q0-5 6-9t13-3h103q8 0 14 3t5 9z m-7 522l428-786q20-35-1-70-9-17-26-26t-35-10h-858q-18 0-35 10t-26 26q-21 35-1 70l429 786q9 17 26 27t36 10 36-10 27-27z" horiz-adv-x="1000" />

<glyph glyph-name="upload" unicode="&#xe805;" d="M714 29q0 14-10 25t-25 10-25-10-11-25 11-25 25-11 25 11 10 25z m143 0q0 14-10 25t-26 10-25-10-10-25 10-25 25-11 26 11 10 25z m72 125v-179q0-22-16-38t-38-16h-821q-23 0-38 16t-16 38v179q0 22 16 38t38 15h238q12-31 39-51t62-20h143q34 0 61 20t40 51h238q22 0 38-15t16-38z m-182 361q-9-22-33-22h-143v-250q0-15-10-25t-25-11h-143q-15 0-25 11t-11 25v250h-143q-23 0-33 22-9 22 8 39l250 250q10 10 25 10t25-10l250-250q18-17 8-39z" horiz-adv-x="928.6" />

<glyph glyph-name="cog" unicode="&#xe806;" d="M571 350q0 59-41 101t-101 42-101-42-42-101 42-101 101-42 101 42 41 101z m286 61v-124q0-7-4-13t-11-7l-104-16q-10-30-21-51 19-27 59-77 6-6 6-13t-5-13q-15-21-55-61t-53-39q-7 0-14 5l-77 60q-25-13-51-21-9-76-16-104-4-16-20-16h-124q-8 0-14 5t-6 12l-16 103q-27 9-50 21l-79-60q-6-5-14-5-8 0-14 6-70 64-92 94-4 5-4 13 0 6 5 12 8 12 28 37t30 40q-15 28-23 55l-102 15q-7 1-11 7t-5 13v124q0 7 5 13t10 7l104 16q8 25 22 51-23 32-60 77-6 7-6 14 0 5 5 12 15 20 55 60t53 40q7 0 15-5l77-60q24 13 50 21 9 76 17 104 3 16 20 16h124q7 0 13-5t7-12l15-103q28-9 51-20l79 59q5 5 13 5 7 0 14-5 72-67 92-95 4-5 4-12 0-7-4-13-9-12-29-37t-30-40q15-28 23-54l102-16q7-1 12-7t4-13z" horiz-adv-x="857.1" />

<glyph glyph-name="calendar" unicode="&#xe807;" d="M71-79h161v161h-161v-161z m197 0h178v161h-178v-161z m-197 197h161v178h-161v-178z m197 0h178v178h-178v-178z m-197 214h161v161h-161v-161z m411-411h179v161h-179v-161z m-214 411h178v161h-178v-161z m428-411h161v161h-161v-161z m-214 197h179v178h-179v-178z m-196 482v161q0 7-6 12t-12 6h-36q-7 0-12-6t-6-12v-161q0-7 6-13t12-5h36q7 0 12 5t6 13z m410-482h161v178h-161v-178z m-214 214h179v161h-179v-161z m214 0h161v161h-161v-161z m18 268v161q0 7-5 12t-13 6h-35q-7 0-13-6t-5-12v-161q0-7 5-13t13-5h35q8 0 13 5t5 13z m215 36v-715q0-29-22-50t-50-21h-786q-29 0-50 21t-21 50v715q0 29 21 50t50 21h72v54q0 37 26 63t63 26h36q37 0 63-26t26-63v-54h214v54q0 37 27 63t63 26h35q37 0 64-26t26-63v-54h71q29 0 50-21t22-50z" horiz-adv-x="928.6" />

<glyph glyph-name="noun_808684_cc" unicode="&#xe808;" d="M290 334c0 0 0 0 0 0 0 0 0 0 0 0z m2-1c1 0 1 0 2-1 0 0-1 1-2 1z m2-1c0 0 0 0 1 0-1 0-1 0-1 0z m-4 2c0 0 0 0 1-1-1 1-1 1-1 1z m1 0c1 0 1-1 2-1-1 0-2 0-2 1z m5-2c0 0 1 0 0 0 1 0 0 0 0 0z m2-1c0 0 0 0 0 0l0 0z m0 0c0 0 0 0 0 0 0 0 0 0 0 0z m-3 1c1 0 1 0 0 0 1 0 1 0 0 0z m0 0c0 0 0 0 0 0 0 0 0 0 0 0z m-13 5c0 0 0 0 0 0 0 0 0 0 0 0z m5-2c1 0 1-1 2-1 0 1-1 1-2 1z m-7 3c0 0 0 0 0 0 0 0 0 0 0 0z m2-1c0 0 0 0 0 0 0 0 0 0 0 0z m-1 1c0 0 0 0 0 0 0 0 0 0 0 0z m0 0c0 0 1 0 1 0-1-1-1 0-1 0z m4-2c0 0 1 0 1 0 0 0 0 0-1 0z m-3 1c1 0 1 0 2-1 0 0-1 0-2 1z m4-1c0 0 0-1 1-1 0 0-1 1-1 1z m-2 0c0 0 1 0 1 0 0 0 0 0-1 0z m13-4c0 0 0-1 0 0 0-1 0 0 0 0z m213 0c0 0-1 0 0 0-1 0 0 0 0 0z m0 0c0 0 0 0-1 0 1 0 1 0 1 0z m-1 0c0 0 0 0 0 0 0 0 0 0 0 0z m5 2c-1 0-1-1-2-1 1 0 1 0 2 1z m-2-1c-1 0-1 0-2-1 1 0 1 1 2 1z m69 61c0 0-16-40-56-56l-24-104c0 0-8-40-40-48-3-1-5-2-7-2l-6 10-6-12c-5-1-10-2-15-2l-3 6-3-7c-3 0-7-1-9-1l-4 8-4-8-8 0-4 8-4-7-1 0c-2 0-5 1-8 1l-3 6-3-6c-5 1-11 2-16 3l-5 11-5-9c-1 0-2 1-3 1-32 8-40 48-40 48l-24 104c-40 16-56 56-56 56s-8-24 0-40 48-56 48-72 40-96 40-96l60-40 4-8v6l1-1 7-21 4 8 4-8v-8l8-8 8 8 2 14 2-6 8 16 72 48c0 0 40 80 40 96s40 56 48 72 1 40 1 40z m-72-62c-1 0-1 0 0 0-1 0-1 0 0 0z m6 2c-1 0-1 0-1-1 0 1 0 1 1 1z m-8-3c-1 0-1 0 0 0l0 0z m0 0c0 0 0 0 0 0 0 0 0 0 0 0z m1 1c-1 0-1-1 0 0-1-1-1 0 0 0z m16 6c0 0 0 0 0 0 0 0 0 0 0 0z m-1-1c0 0-1 0 0 0-1 0 0 0 0 0z m-1 0c0 0 0 0 0 0 0 0 0 0 0 0z m2 1c0 0-1 0-1 0 0-1 1 0 1 0z m-2-1c-1 0-1 0-2-1 1 0 2 0 2 1z m-7-3c0 0 0 0 0 0 0 0 0 0 0 0z m10 4c-1 0-1 0 0 0-1 0 0 0 0 0z m-5-2c0 0-1 0-1 0 1 0 1 0 1 0z m-2 0c0 0 0-1-1-1 1 0 1 1 1 1z m-1-1c-1 0-1-1-2-1 1 1 1 1 2 1z m2 1c0 0-1 0-1 0 1 0 1 0 1 0z m-199 74c40 0 40-48 40-48 8 56-40 48-40 48z m144-56c0 0 16 8 16 16s0 8 0 8l-16-8v-16z m-23 8c0 0 0 48 40 48 0 0-48 8-40-48z m-121 8c0-8 16-16 16-16v16l-16 8c0 0 0 0 0-8z m-57 142c1 1 1 2 1 2s0-1-1-2z m264 0c0 1 0 2 0 2s0-1 0-2z m211 116c-40 43-100 48-128 52-50 4-119-4-148-26-20 8-44 12-68 12-18 0-36-2-52-7-26 26-98 37-150 31-28-3-87-9-128-56-62-73-29-184-24-184 5 0-14 112 48 160 26 21 70 30 104 16 14-6 22-14 30-22-24-20-38-48-38-80 0-24 9-48 24-65 8-47 37-88 76-115 22-55 47-77 64-87l12-47 10 29 6-13 5 10c2 0 4 0 6 0l5-10 4 9c6 0 10-1 13-1l0 0c0 0 0 0 1 0 0 0 0 0 0 0l0 0c0 0 1 0 1 0l4-8 4 9c3 0 5 0 7 1l6-10 6 10c0 0 0 0 1 1l9-27 12 49c17 11 40 37 62 94l1 2c35 6 61 39 61 79 0 7-1 14-2 22 16 18 26 42 26 68 0 28-11 54-30 73 7 9 16 18 32 24 34 13 77 4 104-14 64-44 44-148 48-148 5-1 40 101-24 169z m-475-116c1 1 1 2 1 2s0-1-1-2c-1-4 2-12 29-13-2-3-5-8-5-12 0-11 9-20 20-20s20 9 20 20c0 3-1 6-2 9 27-8 27-30 27-30l-16-8c-78 7-74 46-73 54z m47-34c-3 10 0 18 0 19 0 0 0 0 0 0 0 0 0 0 0 0 4-7 0-19 0-19z m26-124c0 0-16 8-16 16s0 8 0 8l16-8v-16z m24 8c0 0 0 48-40 48 0 0 48 8 40-48z m6 112c-15 57-86 71-86 71 100 15 86-71 86-71z m65 0c0 0-13 86 81 71 0 0-67-14-81-71z m47 4c-3 10-1 16 0 18 0 0 0 0 0 0 4-7 0-18 0-18z m2-108c0-8-16-16-16-16v16l16 8c0 0 0 0 0-8z m-39-8c-8 56 40 48 40 48-40 0-40-48-40-48z m21 96l-14 8c0 0 0 18 17 26 0-2-1-4-1-6 0-11 9-20 20-20s20 9 20 20c0 5-2 9-4 12 26 2 28 10 28 14 0 0 0 1 0 1s0-1 0-1c1-8 5-47-66-54z m-198 208c0 1-2 2-5 2-23 7-72 37-83 78-7 26 4 46 0 48-5 2-20-22-24-48-1-6-9-56 24-80 34-26 88-4 88 0z m272-8c0 1 2 2 4 2 18 7 56 37 65 78 5 26-3 46 0 48 4 2 15-22 18-48 1-6 7-56-18-80-27-26-69-4-69 0z m-312-64c0 0-64 16-88-80 0 0-8-32-8-40s72 16 72 16l24 104 0 0 0 0z m344-8c0 0 58 16 81-80 0 0 7-32 7-40s-66 16-66 16l-22 104 0 0 0 0z" horiz-adv-x="800" />

<glyph glyph-name="noun_718311_cc" unicode="&#xe809;" d="M7 360c19 91 88 165 94 257 27-48 30-83 33-133 84 103 171 240 152 366 0 0 159-50 223-294 38 34 35 104 16 145 56-41 380-407-51-651 81 158 21 371-120 470 9-43-2-153-65-223 14 72-21 118-21 118s-11-65-56-131c-41-59-70-123-16-234-170 96-215 186-189 310z" horiz-adv-x="695" />

<glyph glyph-name="cancel-squared" unicode="&#xe80a;" d="M700 750q42 0 71-29t29-71l0-600q0-40-29-70t-71-30l-600 0q-40 0-70 30t-30 70l0 600q0 42 30 71t70 29l600 0z m-146-638l86 86-154 152 154 154-86 86-154-152-152 152-88-86 154-154-154-152 88-86 152 152z" horiz-adv-x="800" />

<glyph glyph-name="plus-squared" unicode="&#xe80b;" d="M700 750q42 0 71-29t29-71l0-600q0-40-29-70t-71-30l-600 0q-40 0-70 30t-30 70l0 600q0 42 30 71t70 29l600 0z m-50-450l0 100-200 0 0 200-100 0 0-200-200 0 0-100 200 0 0-200 100 0 0 200 200 0z" horiz-adv-x="800" />

<glyph glyph-name="minus-squared" unicode="&#xe80c;" d="M700 750q42 0 71-29t29-71l0-600q0-40-29-70t-71-30l-600 0q-40 0-70 30t-30 70l0 600q0 42 30 71t70 29l600 0z m-50-450l0 100-500 0 0-100 500 0z" horiz-adv-x="800" />

<glyph glyph-name="info-circled" unicode="&#xe80d;" d="M571 82v89q0 8-5 13t-12 5h-54v286q0 8-5 13t-13 5h-178q-8 0-13-5t-5-13v-89q0-8 5-13t13-5h53v-179h-53q-8 0-13-5t-5-13v-89q0-8 5-13t13-5h250q7 0 12 5t5 13z m-71 500v89q0 8-5 13t-13 5h-107q-8 0-13-5t-5-13v-89q0-8 5-13t13-5h107q8 0 13 5t5 13z m357-232q0-117-57-215t-156-156-215-58-216 58-155 156-58 215 58 215 155 156 216 58 215-58 156-156 57-215z" horiz-adv-x="857.1" />

<glyph glyph-name="noun_633137_cc" unicode="&#xe80e;" d="M726 370c-6 13-13 26-24 37-8 9-17 15-26 22-42 35-65 91-106 127-22 19-49 32-78 38-14 2-30 7-32 21 0 4 1 8 2 12 11 29 20 58 31 88 2 7 5 13 9 19 6 7 15 12 21 19 7 7 9 19 1 26-14 2-28 1-41-5 4 7-1 17-8 21-7 4-16 4-24 4-19 0-39-1-58-1-9 0-19-1-25-7-3-3-4-7-7-11-9-9-24-6-37-4-13 3-30 1-34-12 0-4 0-8 1-13 11-42 29-81 55-115 5-8 12-16 12-26-85-41-162-106-220-182-19-25-37-52-48-83-10-31-12-65-2-95 15-42 53-73 90-98 32-24 68-47 107-58 45-13 92-10 138-6 50 4 100 7 147 25 38 15 72 39 105 62 35 24 71 51 79 92 7 35-11 71-28 103z m-295-90l0 0 1-34h-47l1 34c-23 3-41 13-59 39l31 38c16-20 36-24 51-24 17 0 28 7 27 19 0 10-10 16-30 18-37 4-68 15-65 61 2 29 23 43 48 48l1 20h35l1-19c15-3 28-8 40-18l-20-30c-11 8-24 12-37 12-11 0-22-4-22-13 0-12 11-14 27-16 32-4 68-19 72-64 4-41-22-63-55-71z" horiz-adv-x="800" />

<glyph glyph-name="noun_840074_cc" unicode="&#xe80f;" d="M48 642l0-384 225 0c-50 45-81 114-81 192 0 78 31 147 81 192l-225 0z m279 0c-60-33-103-106-103-192 0-86 43-159 103-192l146 0c60 33 103 106 103 192 0 86-43 159-103 192l-146 0z m200 0c50-45 81-114 81-192 0-78-31-147-81-192l225 0 0 384-225 0z m-125-56c8 0 16-7 16-16l0-11c20-6 36-23 44-39 4-7 1-18-6-22-8-4-19 0-22 8-6 12-19 23-34 23-19 0-32-11-32-32 0-17 20-26 39-33 10-5 23-9 35-18 12-9 22-25 22-45 0-30-20-54-46-61l0-10c0-9-8-16-16-16-9 0-16 7-16 16l0 9c-23 5-39 22-48 39-4 8-1 19 7 23 8 4 18 0 22-9 5-11 18-23 33-23 20 0 32 11 32 32 0 17-20 26-39 34-10 5-23 9-35 18-12 8-21 24-21 44 0 31 21 56 49 62l0 11c0 9 7 16 16 16z" horiz-adv-x="800" />

<glyph glyph-name="box" unicode="&#xe810;" d="M870 750q12 0 21-9t9-21l0-120-900 0 0 120q0 12 9 21t21 9l840 0z m-820-730l0 530 800 0 0-530q0-30-21-50t-49-20l-660 0q-28 0-49 20t-21 50z m250 430l0-100 300 0 0 100-300 0z" horiz-adv-x="900" />

<glyph glyph-name="dragon_cc" unicode="&#xe900;" d="M340 569c0 0 36 9 42 11 6 3 21 4 25 3s18-3 18-3l48 125-72-73 13 32-74-95z m190-100c11 24 12 55 12 67s36 159 36 159l-61-73 2 18-55-48-36-23c-9 4-18 7-28 5-27-5-74-12-87-34-10-17-22-41-24-60l-46-32c-3 0-7-1-10-3-5-2-8-7-9-11h-1c0 0-8-41 8-55 17-15 59-39 67-38s16-6 16-6v11l7-3v12l64 23c17-3 37 0 58 16 4 2 7 6 10 9v0c0 0 21 13 41 29 0 0 24 40 8 68s-17 27-17 27 43-22 37-70c4 5 7 9 8 12z m-238-65h-10l8 5h1c2 0 1-5 1-5z m-18 13c-5-12-5-12-5-12s-4 29 26 25l3-2c0-1-20 1-24-11z m379 25c0 0 0 0-20 18-11 10-22 13-31 14 0 2-1 5-2 7 15 19 46 9 46 9s0 0-25 10c-13 6-26 5-34 3-1 1-3 3-5 5 13 30 55 24 55 24s0 0-32 7-55-13-55-13 0-2 0-6c4-1 8-4 12-7l16-16c4-5 8-13 11-21 0 0 1-1 1-3 0-5 1-9 2-15 0-5 0-10-1-15-1-5-1-10-2-15-3-9-6-20-11-31-4-6-7-13-11-21-1-3-3-6-5-8-4-8-9-16-16-25-4-7-9-13-14-20-5-7-10-13-16-19-2-3-4-4-6-7-4-5-8-9-12-13 0-1-1-3-3-4-3-3-5-6-9-9-4-5-8-10-13-14-3-2-5-5-7-7-4-4-8-8-12-12-1-2-3-3-5-6-1 1-1 2-2 4 3 2 4 4 7 7 3 3 6 7 9 11 3 3 6 6 8 10 3 4 7 7 10 11s7 9 10 13c0 0 0 0 0 0l1 0c4 5 7 10 11 15 4 5 9 11 13 17 2 3 3 4 4 7 47 67 85 148 30 181-2-27-16-84-96-137-109-75-192-43-192-43s-47 20-55 29-8 10-8 10-22-59 0-121c3-7 5-13 7-18 15-39 51-64 92-64 39 0 92 12 152 60 1-5 1-8 1-8s0 0 1 9c6 5 11 10 17 15 1-5 1-9 1-9s0 0 0 11c7 6 14 13 20 19 3-7 3-14 3-14s0 0 1 18c4 5 9 9 13 15 9-8 12-21 12-21s0 0-2 20c-1 3-2 6-3 9 4 3 6 6 9 9 1 1 2 2 3 3 24 4 41-22 41-22s0 0-13 24c-4 7-9 12-14 16 6 8 12 16 17 23 24-1 33-31 33-31s0 0-7 26c-3 11-9 19-14 24 2 4 4 8 6 11 24 5 43-22 43-22s0 0-14 24c-5 9-11 15-18 19 4 8 7 16 9 22 25 7 44-22 44-22s0 0-13 24c-7 12-16 20-24 23 0 3 0 5 0 9 24 15 51-6 51-6z m-200-191c0-1 0-1 1-2-1 1-1 2-1 2z m-4 9c0 0 0-1 0 0 0-1 0 0 0 0z m1-4c0-1 1-1 1-2 0 1 0 2-1 2z m214 404c0 0 1 0 1 1-2 2-4 4-6 6-6 7-11 10-11 10v0c-58 51-132 81-214 81-180 0-327-146-327-326 0-92 38-174 98-233-20 40-47 129-7 193l2 2 6 46 3 17 18 13h13l26 18c11 37 52 83 52 83l105 126v-23l47 46 20 7 7-18-38-98 70 73v-28l58 62 4-12-33-157 0 1c0 0 52 42 86 84 19-12 32-46 32-46 6 35-3 58-12 72z" horiz-adv-x="799.8" />

<glyph glyph-name="angle-circled-up" unicode="&#xf139;" d="M650 214l57 57q11 11 11 25t-11 26l-253 253q-11 11-25 11t-25-11l-254-253q-10-11-10-26t10-25l57-57q11-10 25-10t25 10l172 172 171-172q11-10 25-10t25 10z m207 136q0-117-57-215t-156-156-215-58-216 58-155 156-58 215 58 215 155 156 216 58 215-58 156-156 57-215z" horiz-adv-x="857.1" />

<glyph glyph-name="angle-circled-down" unicode="&#xf13a;" d="M454 125l253 254q11 10 11 25t-11 25l-57 57q-10 10-25 10t-25-10l-171-172-172 172q-10 10-25 10t-25-10l-57-57q-10-11-10-25t10-25l254-254q10-10 25-10t25 10z m403 225q0-117-57-215t-156-156-215-58-216 58-155 156-58 215 58 215 155 156 216 58 215-58 156-156 57-215z" horiz-adv-x="857.1" />

<glyph glyph-name="thumbs-up-alt" unicode="&#xf164;" d="M143 100q0 15-11 25t-25 11q-15 0-25-11t-11-25q0-15 11-25t25-11q15 0 25 11t11 25z m89 286v-357q0-15-10-25t-26-11h-160q-15 0-25 11t-11 25v357q0 14 11 25t25 10h160q15 0 26-10t10-25z m661 0q0-48-31-83 9-25 9-43 1-42-24-76 9-31 0-66-9-31-31-52 5-62-27-101-36-43-110-44h-72q-37 0-80 9t-68 16-67 22q-69 24-88 25-15 0-25 11t-11 25v357q0 14 10 25t24 11q13 1 42 33t57 67q38 49 56 67 10 10 17 27t10 27 8 34q4 22 7 34t11 29 19 28q10 11 25 11 25 0 46-6t33-15 22-22 14-25 7-28 2-25 1-22q0-21-6-43t-10-33-16-31q-1-4-5-10t-6-13-5-13h155q43 0 75-32t32-75z" horiz-adv-x="928.6" />

<glyph glyph-name="thumbs-down-alt" unicode="&#xf165;" d="M143 529q0-15-11-25t-25-11q-15 0-25 11t-11 25q0 15 11 25t25 10q15 0 25-10t11-25z m89-286v357q0 15-10 25t-26 11h-160q-15 0-25-11t-11-25v-357q0-15 11-25t25-11h160q15 0 26 11t10 25z m630 83q31-34 31-83-1-44-32-75t-75-32h-155q2-8 5-14t6-12 5-10q10-21 15-32t11-32 6-43q0-14-1-22t-2-25-7-28-14-25-22-23-33-14-46-6q-15 0-25 11-12 11-19 27t-11 29-7 35q-5 23-8 33t-10 27-17 27q-18 19-56 67-28 36-57 68t-42 33q-14 1-24 11t-10 24v358q0 15 11 25t25 11q19 0 88 24 43 15 67 22t68 17 80 8h72q74-1 110-43 32-39 27-101 22-21 31-53 9-34 0-65 25-34 24-77 0-17-9-42z" horiz-adv-x="928.6" />

<glyph glyph-name="bug" unicode="&#xf188;" d="M911 314q0-14-11-25t-25-10h-125q0-96-37-162l116-117q10-11 10-25t-10-25q-10-11-25-11t-25 11l-111 110q-3-3-8-7t-24-16-36-21-46-16-54-7v500h-71v-500q-29 0-57 7t-49 19-36 22-25 18l-8 8-102-116q-11-12-27-12-13 0-24 9-11 10-11 25t8 26l113 127q-32 63-32 153h-125q-15 0-25 10t-11 25 11 25 25 11h125v164l-97 97q-11 10-11 25t11 25 25 10 25-10l97-97h471l96 97q11 10 25 10t26-10 10-25-10-25l-97-97v-164h125q15 0 25-11t11-25z m-268 322h-357q0 74 52 126t126 52 127-52 52-126z" horiz-adv-x="928.6" />
</font>
</defs>
</svg>
